<svg width="24" height="24" viewBox="0 0 24 24" fill="none" xmlns="http://www.w3.org/2000/svg">
<path d="M10.75 15.5C10.75 16.0523 11.1977 16.5 11.75 16.5C12.3023 16.5 12.75 16.0523 12.75 15.5H10.75ZM12.75 8C12.75 7.44772 12.3023 7 11.75 7C11.1977 7 10.75 7.44772 10.75 8H12.75ZM12.75 15.5V8H10.75V15.5H12.75Z" fill="#262626"/>
<path d="M8 10.75C7.44772 10.75 7 11.1977 7 11.75C7 12.3023 7.44772 12.75 8 12.75L8 10.75ZM15.5 12.75C16.0523 12.75 16.5 12.3023 16.5 11.75C16.5 11.1977 16.0523 10.75 15.5 10.75L15.5 12.75ZM8 12.75L15.5 12.75L15.5 10.75L8 10.75L8 12.75Z" fill="#262626"/>
<path d="M12 23C18.0751 23 23 18.0751 23 12C23 5.92487 18.0751 1 12 1C5.92487 1 1 5.92487 1 12C1 18.0751 5.92487 23 12 23Z" stroke="#262626" stroke-width="2" stroke-linecap="round" stroke-linejoin="round"/>
</svg>
